<?xml version="1.0" standalone="no"?>
<!DOCTYPE svg PUBLIC "-//W3C//DTD SVG 20010904//EN"
 "http://www.w3.org/TR/2001/REC-SVG-20010904/DTD/svg10.dtd">
<svg version="1.0" xmlns="http://www.w3.org/2000/svg"
 width="1000.000000pt" height="1000.000000pt" viewBox="0 0 1000.000000 1000.000000"
 preserveAspectRatio="xMidYMid meet">

<style>
  :root { --ne2-bg: #ffffff; --ne2-fg: #000000; }
  @media (prefers-color-scheme: dark) {
    :root { --ne2-bg: #000000; --ne2-fg: #ffffff; }
  }
</style>

<rect x="0" y="0" width="1000" height="1000" fill="var(--ne2-bg)"/>

<g transform="translate(0.000000,1000.000000) scale(0.100000,-0.100000)"
fill="var(--ne2-fg)" stroke="none">
<path d="M8258 8235 c-7 -8 -48 -17 -83 -20 -16 -1 -41 -7 -55 -13 -14 -5 -52
-17 -85 -27 -100 -28 -298 -123 -392 -186 -23 -16 -45 -29 -49 -29 -34 0 -314
-261 -314 -293 0 -8 -7 -20 -15 -27 -20 -17 -19 -60 3 -76 29 -23 82 -16 141
17 31 18 58 35 61 38 19 26 296 211 315 211 4 0 44 17 89 38 90 42 174 72 203
72 10 0 23 4 29 10 16 16 150 28 174 15 35 -19 60 -71 60 -125 0 -27 -4 -51
-9 -54 -5 -3 -12 -21 -15 -40 -14 -74 -163 -333 -245 -426 -17 -19 -31 -40
-31 -45 0 -6 -20 -31 -45 -55 -25 -24 -45 -48 -45 -54 0 -5 -24 -35 -52 -66
-29 -32 -71 -82 -93 -111 -22 -29 -119 -132 -215 -228 -96 -95 -180 -185 -187
-199 -19 -37 -16 -123 6 -149 28 -33 91 -73 117 -73 12 0 26 -4 29 -10 3 -5
45 -10 93 -10 58 0 97 -5 116 -15 15 -8 45 -15 65 -15 36 0 212 64 303 111 23
12 70 26 103 31 33 5 74 11 90 13 17 3 51 8 77 11 26 4 53 12 58 20 7 8 24 11
43 7 57 -9 197 23 277 63 43 21 112 45 162 55 65 14 98 26 130 51 24 18 71 51
106 73 34 21 62 43 62 47 0 9 -37 26 -90 39 -56 15 -137 15 -255 1 -60 -7
-132 -16 -160 -19 -27 -3 -54 -9 -60 -13 -5 -4 -57 -11 -115 -15 -58 -4 -109
-11 -115 -15 -5 -4 -28 -10 -50 -13 -22 -3 -73 -13 -112 -21 -40 -9 -106 -23
-145 -32 -85 -18 -116 -20 -129 -7 -10 10 52 109 111 182 17 19 30 41 30 47 0
6 9 19 20 29 10 9 29 36 40 59 12 22 27 46 33 51 16 13 67 92 67 103 0 4 18
26 40 47 23 22 55 64 73 93 52 87 96 165 106 188 5 11 25 54 44 95 19 41 40
90 46 109 24 78 41 153 41 182 0 64 -55 201 -97 240 -13 12 -23 27 -23 34 0
20 -62 63 -122 85 -49 17 -147 26 -160 14z"/>
<path d="M6505 7235 c-51 -22 -65 -46 -72 -121 -3 -38 -10 -75 -15 -81 -6 -7
-8 -23 -5 -35 3 -13 -1 -32 -9 -42 -17 -24 -18 -95 -2 -131 13 -29 25 -33 123
-39 39 -3 93 -8 120 -11 43 -6 53 -4 69 14 18 20 19 22 1 61 -16 36 -16 42 -3
58 20 22 48 81 48 99 0 13 29 90 53 141 9 19 6 27 -18 52 -28 29 -31 30 -96
24 -53 -5 -72 -3 -90 10 -28 19 -62 19 -104 1z"/>
<path d="M4730 6454 c-100 -34 -178 -71 -237 -111 -60 -43 -203 -191 -203
-211 0 -6 -7 -15 -15 -19 -17 -10 -93 -121 -130 -190 -14 -27 -34 -61 -45 -78
-39 -60 -50 -84 -54 -121 -3 -20 -10 -42 -15 -47 -6 -6 -11 -19 -11 -28 0 -9
-7 -30 -15 -45 -8 -16 -15 -39 -15 -51 0 -12 -4 -25 -10 -28 -5 -3 -10 -21
-10 -40 0 -19 -4 -37 -10 -40 -5 -3 -10 -18 -10 -33 0 -15 -7 -49 -15 -76 -10
-31 -15 -91 -15 -162 l0 -112 -67 -59 c-146 -127 -240 -195 -348 -248 -22 -11
-42 -23 -45 -26 -3 -3 -30 -11 -60 -18 -30 -6 -65 -15 -78 -18 -15 -3 -36 3
-62 21 -62 41 -97 119 -107 236 -3 41 -10 80 -15 87 -5 7 -14 162 -19 345 -8
289 -18 452 -32 508 -23 97 -47 159 -74 196 -13 17 -23 35 -23 41 0 12 -47 47
-106 78 -38 20 -62 25 -120 25 -40 0 -76 -4 -79 -10 -3 -5 -16 -10 -28 -10
-24 0 -164 -69 -210 -104 -93 -70 -173 -158 -302 -330 -27 -37 -64 -85 -82
-107 -17 -22 -35 -49 -39 -62 -4 -12 -14 -29 -23 -37 -9 -8 -68 -96 -130 -195
-62 -99 -124 -196 -136 -215 -13 -19 -53 -86 -89 -147 -37 -62 -71 -113 -76
-113 -12 0 -13 27 -1 34 5 3 11 18 14 33 3 16 14 61 26 100 12 40 21 84 21 97
0 14 4 27 9 31 5 3 12 31 16 63 3 31 12 82 20 113 8 30 18 91 21 135 4 43 11
85 17 92 6 8 14 35 18 60 28 169 42 245 55 302 8 36 14 106 14 156 0 78 -3 95
-21 118 -15 19 -28 26 -41 23 -12 -3 -23 2 -31 14 -22 36 -122 16 -146 -30
-11 -19 -49 -170 -58 -228 -3 -18 -9 -33 -13 -33 -5 0 -12 -26 -16 -57 -4 -32
-13 -63 -20 -71 -8 -7 -14 -21 -14 -31 0 -9 -5 -22 -11 -28 -6 -6 -13 -33 -15
-59 -5 -63 -19 -131 -35 -169 -7 -16 -14 -41 -16 -55 -2 -13 -9 -30 -14 -37
-6 -6 -9 -29 -8 -50 1 -21 -2 -47 -9 -59 -6 -12 -14 -52 -18 -90 -4 -38 -10
-74 -15 -79 -4 -6 -17 -42 -29 -80 -11 -39 -25 -82 -30 -97 -4 -15 -6 -37 -3
-49 3 -11 1 -30 -5 -42 -22 -44 -71 -204 -87 -287 -10 -47 -21 -89 -26 -94 -5
-6 -9 -45 -9 -88 0 -78 0 -78 40 -118 22 -22 47 -40 55 -40 8 0 42 -25 76 -55
61 -54 96 -67 141 -50 8 3 48 49 89 102 41 52 89 112 106 133 18 21 33 41 33
45 0 3 15 25 33 48 19 23 43 58 53 77 10 19 31 52 47 74 15 21 27 45 27 51 0
7 6 18 14 24 8 7 24 32 35 57 12 24 30 53 41 64 10 10 34 47 51 82 18 35 42
77 54 93 11 17 36 55 54 85 19 30 37 57 40 60 4 3 15 24 25 48 11 23 25 47 33
54 13 10 74 106 114 178 39 70 203 282 246 317 73 60 120 85 143 78 12 -4 32
-24 45 -46 l25 -39 0 -352 c0 -218 5 -368 11 -393 6 -22 15 -74 19 -115 5 -41
14 -93 21 -115 23 -79 61 -176 73 -188 7 -7 15 -18 17 -24 7 -21 93 -121 114
-132 11 -6 34 -20 50 -30 17 -11 40 -20 52 -20 12 -1 25 -6 29 -12 10 -17 227
-5 289 16 82 28 195 84 273 136 40 27 75 49 77 49 3 0 13 7 23 15 9 9 55 45
101 81 l85 66 18 -24 c10 -13 18 -27 18 -31 0 -4 4 -13 10 -20 50 -63 78 -90
123 -118 28 -19 54 -37 55 -41 2 -5 12 -8 21 -8 10 0 21 -3 25 -7 11 -12 80
-33 106 -33 15 0 31 -5 37 -11 8 -8 51 -9 135 -6 186 9 232 17 363 67 42 15
180 85 183 93 2 4 8 7 14 7 6 0 42 24 82 53 39 30 81 59 93 65 12 7 28 19 37
27 24 25 105 85 114 85 14 0 349 344 356 365 4 11 24 34 44 50 35 29 150 150
212 225 l29 35 1 -30 c0 -17 -4 -35 -9 -40 -5 -6 -12 -35 -15 -65 -3 -30 -9
-89 -13 -131 -5 -42 -14 -83 -20 -91 -9 -10 -15 -80 -19 -214 -6 -176 -5 -206
11 -254 10 -30 21 -59 25 -65 4 -5 10 -22 13 -36 9 -35 113 -143 165 -168 23
-12 64 -27 90 -33 60 -15 281 -15 352 0 63 13 158 49 181 69 8 7 18 13 22 13
15 0 155 71 186 94 19 14 40 26 45 26 6 0 51 36 101 80 49 44 93 80 98 80 4 0
51 42 105 93 53 52 118 113 145 137 26 23 47 48 47 54 0 6 25 36 55 66 30 30
55 59 55 64 0 5 9 19 19 30 48 53 89 171 67 193 -2 2 -28 6 -58 9 -49 4 -60 0
-116 -34 -34 -20 -113 -82 -175 -137 -62 -55 -131 -113 -153 -130 -21 -16 -64
-54 -95 -82 -31 -29 -63 -53 -72 -53 -9 0 -19 -4 -22 -10 -9 -15 -145 -115
-190 -140 -22 -12 -52 -31 -67 -41 -14 -11 -28 -19 -31 -19 -3 0 -41 -16 -84
-36 -81 -38 -175 -57 -225 -47 -36 7 -77 59 -85 107 -3 20 -10 39 -14 42 -5 3
-9 51 -8 107 0 95 5 145 29 302 5 33 14 96 19 140 6 44 14 89 17 100 3 11 10
45 15 75 9 58 27 172 33 205 2 11 8 31 14 45 5 14 24 66 42 115 17 50 38 104
46 122 8 17 14 40 14 51 0 12 5 24 10 27 6 3 10 26 10 49 0 66 -40 146 -73
146 -9 0 -19 5 -22 10 -3 6 -39 10 -80 10 -41 0 -77 -4 -80 -10 -3 -5 -14 -10
-24 -10 -32 0 -88 -68 -139 -170 -22 -45 -110 -180 -131 -201 -9 -9 -52 -57
-96 -105 -44 -49 -99 -107 -122 -128 -24 -22 -43 -45 -43 -51 0 -6 -38 -44
-84 -85 -47 -41 -83 -77 -81 -80 8 -13 -28 -53 -150 -167 -71 -66 -150 -142
-175 -167 -24 -25 -49 -46 -54 -46 -6 0 -28 -18 -51 -39 -45 -44 -70 -63 -200
-152 -112 -76 -210 -122 -306 -143 -41 -10 -89 -22 -107 -27 -42 -13 -132 -2
-171 22 -43 26 -79 85 -92 152 -14 69 -11 73 100 149 118 80 289 218 299 241
2 4 9 7 15 7 7 0 50 39 97 87 47 48 104 106 128 129 23 23 42 47 42 53 0 7 20
34 45 60 25 26 45 51 45 54 0 3 23 37 51 74 42 57 108 179 139 258 4 11 13 33
19 48 13 33 15 100 2 125 -4 9 -16 33 -25 52 -32 65 -138 138 -253 174 -75 23
-237 29 -293 10z m213 -273 c18 -17 39 -47 46 -68 11 -35 10 -43 -15 -93 -66
-135 -281 -374 -494 -550 -30 -25 -61 -51 -68 -58 -31 -28 -83 -64 -88 -60 -2
3 0 18 7 34 6 16 17 54 25 84 8 30 18 64 23 75 5 11 18 41 30 67 12 26 21 51
21 55 0 4 8 25 19 47 10 23 21 48 25 56 3 8 20 38 36 65 17 28 35 61 41 75 26
62 160 209 229 251 26 16 105 47 122 49 4 0 22 -13 41 -29z"/>
<path d="M6282 3928 c-4 -4 -160 -11 -345 -15 -186 -3 -340 -10 -343 -15 -3
-4 -81 -8 -173 -8 -92 0 -171 -4 -176 -9 -6 -5 -98 -12 -205 -15 -421 -13
-506 -17 -525 -26 -11 -5 -76 -11 -145 -15 -69 -4 -170 -11 -225 -17 -55 -5
-158 -11 -230 -14 -71 -2 -139 -8 -150 -13 -22 -10 -276 -31 -367 -31 -31 0
-60 -4 -63 -10 -3 -5 -43 -10 -88 -10 -45 0 -113 -7 -152 -15 -38 -8 -98 -15
-132 -15 -34 0 -65 -4 -68 -10 -3 -5 -39 -10 -78 -10 -40 0 -99 -5 -132 -11
-33 -5 -114 -17 -180 -25 -66 -8 -149 -19 -185 -24 -36 -6 -118 -15 -182 -22
-64 -7 -120 -16 -124 -20 -4 -5 -33 -8 -64 -8 -31 0 -60 -4 -65 -9 -6 -5 -41
-12 -80 -15 -158 -15 -180 -18 -190 -26 -6 -5 -60 -12 -120 -15 -59 -3 -117
-11 -127 -16 -10 -5 -23 -7 -29 -3 -11 7 -123 -15 -209 -41 -25 -7 -74 -16
-110 -20 -36 -4 -87 -14 -115 -22 -102 -30 -181 -56 -212 -69 -17 -8 -36 -14
-42 -14 -22 0 -106 -43 -133 -68 -38 -35 -36 -67 4 -89 27 -14 60 -17 173 -17
166 -1 280 8 298 22 6 5 39 13 72 16 192 18 232 23 248 30 10 5 23 3 32 -4 20
-16 85 -4 108 21 21 22 43 25 54 5 7 -11 22 -11 98 1 50 8 108 17 130 20 22 3
42 9 45 13 5 8 282 40 289 34 7 -7 -33 -33 -42 -27 -5 3 -11 -4 -13 -14 -5
-19 -36 -25 -50 -10 -4 3 -14 2 -24 -3 -9 -5 -61 -19 -116 -31 -54 -13 -102
-28 -106 -33 -4 -6 -10 -8 -13 -4 -4 4 -27 -2 -51 -12 -24 -11 -44 -17 -44
-13 0 3 -6 1 -12 -4 -7 -6 -30 -16 -51 -23 -42 -13 -42 -30 0 -22 16 2 43 5
61 5 20 0 32 6 32 14 0 8 12 13 29 13 16 0 34 6 40 14 6 7 33 16 59 19 50 6
67 9 147 27 28 7 57 13 65 14 20 3 71 16 90 23 8 3 22 7 30 8 59 8 100 18 100
25 0 4 21 6 48 4 26 -2 61 0 77 5 31 10 29 10 -42 15 -77 4 -72 24 9 38 57 9
128 2 128 -13 0 -5 9 -9 20 -9 12 0 17 5 14 13 -4 10 7 13 43 13 26 -1 57 3
68 8 11 5 34 10 50 12 58 6 110 16 121 26 7 5 34 8 60 7 27 -1 105 1 174 4
l125 7 -74 -19 c-41 -11 -78 -18 -82 -15 -5 3 -16 0 -26 -5 -10 -6 -40 -13
-66 -16 -27 -4 -50 -12 -53 -19 -3 -7 -23 -13 -45 -14 -22 -1 -62 -12 -90 -23
-27 -12 -52 -19 -55 -16 -3 3 -21 -1 -39 -9 -19 -8 -50 -14 -68 -14 -19 0 -48
-5 -65 -11 -24 -8 -37 -7 -63 6 -28 15 -34 15 -43 3 -16 -21 -106 -46 -191
-53 -11 -1 -27 -4 -35 -8 -16 -6 -91 -16 -150 -20 -19 -1 -41 -6 -49 -11 -7
-5 -45 -12 -85 -17 -39 -4 -96 -16 -126 -26 l-55 -17 55 -9 c106 -16 183 -19
204 -8 12 7 71 16 131 22 172 15 209 20 221 30 6 5 27 9 45 8 19 -1 61 4 94
10 33 7 85 16 115 21 30 6 78 15 105 20 28 6 93 17 145 23 52 7 109 20 127 29
21 10 35 12 41 6 7 -7 25 -7 49 -2 21 4 52 9 68 10 50 3 229 36 247 45 10 5
43 12 75 15 32 4 63 10 68 14 6 4 54 10 107 13 68 5 111 13 140 27 23 11 49
20 57 20 9 0 31 9 49 20 18 11 49 22 70 24 20 2 50 9 65 15 16 6 34 11 42 11
7 0 15 4 17 8 5 12 222 64 240 57 9 -4 25 -2 36 4 26 14 296 19 300 6 2 -9
-13 -12 -80 -15 -9 -1 -19 -9 -21 -18 -4 -16 -5 -16 -6 0 -1 13 -9 15 -43 11
-58 -7 -64 -16 -34 -48 23 -25 28 -26 57 -16 18 6 48 11 68 11 21 0 42 5 49
12 7 7 42 11 94 10 93 -1 206 11 318 35 66 14 91 23 173 65 22 11 48 -7 40
-28 -4 -11 8 -14 65 -14 65 0 72 2 95 29 22 27 27 28 43 16 25 -19 88 -19 103
-1 10 12 5 14 -29 10 -30 -3 -40 0 -38 9 6 17 67 21 94 6 32 -17 64 -17 96 -2
36 17 40 17 33 -7 -10 -30 17 -35 90 -15 35 9 68 15 72 12 14 -9 34 8 37 29 2
11 12 20 26 22 21 3 22 2 11 -12 -7 -8 -10 -20 -6 -25 6 -11 58 -4 88 11 12 6
23 5 32 -2 28 -24 357 12 375 41 8 12 50 -1 50 -16 0 -7 5 -15 11 -17 17 -6
177 10 212 21 69 21 115 30 177 35 36 3 57 3 48 0 -18 -5 -23 -16 -13 -26 3
-3 26 -1 53 4 57 10 181 18 317 21 55 1 106 6 113 10 19 13 4 27 -29 27 -16 0
-29 5 -29 10 0 6 20 10 45 10 25 0 45 5 45 11 0 5 4 8 9 5 4 -3 6 -17 3 -31
-4 -24 -2 -25 39 -25 25 0 50 7 60 16 11 10 38 16 73 17 36 1 56 6 56 14 0 17
19 26 51 25 16 0 29 4 29 9 0 6 15 9 33 7 49 -5 32 -25 -28 -32 -30 -4 -55
-17 -55 -29 0 -14 191 5 311 32 28 6 60 6 85 1 53 -13 121 -12 145 1 13 6 25
7 32 1 21 -16 61 -21 75 -9 10 8 89 12 250 15 218 3 238 5 258 23 22 20 59 25
69 9 4 -6 55 -10 120 -10 113 0 115 0 112 23 -2 18 4 23 27 25 16 2 33 -1 39
-7 8 -8 8 -11 -1 -11 -7 0 -12 -7 -12 -16 0 -13 11 -15 73 -10 39 4 94 6 121
6 26 0 77 7 113 15 35 8 86 15 113 15 27 0 52 5 55 10 4 6 -23 10 -74 10 -44
0 -83 4 -86 10 -4 6 -53 10 -116 10 -60 0 -109 4 -109 9 0 13 -257 23 -518 21
-158 -1 -217 1 -228 11 -11 9 -68 11 -248 6 -132 -4 -236 -3 -242 2 -11 11
-1692 19 -1702 9z m2215 -114 c-3 -3 -12 -4 -19 -1 -8 3 -5 6 6 6 11 1 17 -2
13 -5z m91 -1 c-16 -2 -40 -2 -55 0 -16 2 -3 4 27 4 30 0 43 -2 28 -4z m-518
-17 c0 -3 -4 -8 -10 -11 -5 -3 -10 -1 -10 4 0 6 5 11 10 11 6 0 10 -2 10 -4z
m67 -2 c-3 -3 -12 -4 -19 -1 -8 3 -5 6 6 6 11 1 17 -2 13 -5z m-1057 -47 c0
-19 -137 -59 -161 -47 -28 16 -23 27 14 33 17 3 48 10 67 15 50 14 80 14 80
-1z m-565 -48 c10 -15 7 -16 -54 -24 -42 -6 -52 -4 -49 6 8 24 91 38 103 18z
m120 1 c-3 -5 -10 -10 -16 -10 -5 0 -9 5 -9 10 0 6 7 10 16 10 8 0 12 -4 9
-10z m-339 -15 c17 -13 15 -14 -33 -15 -55 0 -73 16 -25 23 15 2 30 5 33 6 3
0 14 -6 25 -14z m-171 -4 c17 -3 -67 -33 -107 -38 -24 -3 -38 -1 -38 6 0 6 8
11 19 11 10 0 23 6 29 13 9 10 62 15 97 8z m-435 -50 c0 -14 -18 -23 -31 -15
-8 4 -7 9 2 15 18 11 29 11 29 0z m-800 -70 c0 -9 -24 -21 -43 -21 -6 0 -2 7
9 15 22 17 34 19 34 6z m-95 -11 c4 -6 -6 -10 -22 -10 -16 0 -38 -7 -49 -15
-10 -8 -22 -15 -26 -15 -15 0 -8 29 10 39 22 13 79 14 87 1z m30 0 c3 -5 1
-10 -4 -10 -6 0 -11 5 -11 10 0 6 2 10 4 10 3 0 8 -4 11 -10z m-1040 -52 c17
-7 32 -8 48 -2 24 11 67 7 67 -5 0 -20 -166 -67 -270 -77 -30 -3 -96 -12 -147
-19 -88 -14 -123 -13 -123 6 0 13 41 38 55 33 7 -3 42 2 79 10 37 9 82 16 101
16 19 0 37 5 40 10 3 6 19 10 35 10 16 0 35 7 42 15 16 18 39 19 73 3z m625
-18 c-19 -12 -40 -13 -40 -1 0 9 40 20 50 13 2 -2 -2 -7 -10 -12z m-1091 -51
c17 -6 31 -14 31 -17 0 -9 -81 -42 -102 -42 -9 0 -20 -5 -23 -10 -4 -6 -10 -8
-15 -5 -5 3 -30 1 -56 -5 -34 -8 -50 -8 -58 0 -8 8 -6 14 7 21 9 6 17 17 17
24 0 10 11 15 33 15 23 1 122 22 133 29 1 1 15 -4 33 -10z m24 -86 c-7 -2 -21
-2 -30 0 -10 3 -4 5 12 5 17 0 24 -2 18 -5z m-446 -14 c-14 -8 -22 -8 -30 0
-8 8 -3 11 19 11 25 -1 27 -2 11 -11z m-780 -45 c-3 -3 -12 -4 -19 -1 -8 3 -5
6 6 6 11 1 17 -2 13 -5z"/>
<path d="M4192 3490 c-29 -4 -59 -13 -67 -20 -8 -7 -45 -13 -82 -15 -87 -3
-83 -2 -83 -21 0 -9 -6 -14 -13 -11 -7 3 -21 -1 -32 -9 -10 -8 -30 -14 -44
-15 -22 -1 -21 -2 8 -9 19 -5 45 -4 58 1 14 5 39 9 58 9 19 0 46 5 61 10 17 7
31 7 38 1 7 -6 17 -6 26 -1 8 6 32 10 53 10 39 0 45 8 25 28 -9 9 -8 12 5 12
9 0 17 -4 17 -10 0 -5 7 -10 15 -10 8 0 14 3 14 8 -4 22 3 32 22 32 11 0 17 5
14 10 -7 11 -16 11 -93 0z"/>
<path d="M4314 3475 c-4 -8 -14 -15 -24 -15 -23 0 -35 -17 -18 -23 21 -7 58
15 58 35 0 22 -8 24 -16 3z"/>
<path d="M1440 3100 c0 -5 5 -10 11 -10 5 0 7 5 4 10 -3 6 -8 10 -11 10 -2 0
-4 -4 -4 -10z"/>
</g>
</svg>
