<svg xmlns="http://www.w3.org/2000/svg" width="520" height="140" viewBox="0 0 520 140" role="img" aria-label="NeiNei">
  <defs>
    <linearGradient id="g" x1="0" y1="0" x2="1" y2="1">
      <stop offset="0" stop-color="#2563eb"/>
      <stop offset="1" stop-color="#7c3aed"/>
    </linearGradient>
  </defs>
  <rect x="0" y="0" width="520" height="140" rx="28" fill="url(#g)"/>
  <g fill="#fff">
    <path d="M78 98V42h15l38 37V42h16v56H132L94 61v37H78Z"/>
    <path d="M170 98V42h16v56h-16Z"/>
    <path d="M212 98V42h42c11 0 20 3 26 10 7 6 10 14 10 24s-3 18-10 24c-6 7-15 10-26 10h-26v-14h26c6 0 11-2 14-5 4-4 6-9 6-15s-2-11-6-15c-3-3-8-5-14-5h-26v42h-16Z"/>
    <path d="M315 98V42h16v56h-16Z"/>
    <path d="M357 98V42h15l38 37V42h16v56h-15l-38-37v37h-16Z"/>
  </g>
</svg>
